<?xml version="1.0" encoding="utf-8"?>
<!-- Generator: Adobe Illustrator 16.0.0, SVG Export Plug-In . SVG Version: 6.00 Build 0)  -->
<!DOCTYPE svg PUBLIC "-//W3C//DTD SVG 1.1//EN" "http://www.w3.org/Graphics/SVG/1.1/DTD/svg11.dtd">
<svg version="1.1" id="圖層_1" xmlns="http://www.w3.org/2000/svg" xmlns:xlink="http://www.w3.org/1999/xlink" x="0px" y="0px"
	 width="275.354px" height="93.43px" viewBox="0 0 275.354 93.43" enable-background="new 0 0 275.354 93.43" xml:space="preserve">
<g>
	<polygon fill="#FFFFFF" points="193.558,87.663 196.743,87.663 199.587,77.344 196.402,77.344 	"/>
	<path fill="#FFFFFF" d="M192.219,92.526c0,0-0.299,0.785,0.423,0.785c0.715,0,1.6,0,2.137,0s0.627-0.797,0.627-0.797l0.553-1.996
		h-3.189L192.219,92.526z"/>
	<polygon fill="#FFFFFF" points="217.415,40.5 220.606,38.909 216.599,25.625 227.771,33.294 230.121,30.539 218.951,22.87 
		234.287,22.87 235.167,19.688 219.824,19.688 235.226,12.017 234.39,9.262 218.995,16.932 230.327,3.646 228.006,2.055 
		216.676,15.34 220.908,0 217.719,0 213.497,15.34 209.487,2.055 206.294,3.646 210.305,16.932 199.127,9.262 196.779,12.017 
		207.946,19.688 192.612,19.688 191.735,22.87 207.073,22.87 191.672,30.539 192.505,33.294 207.907,25.625 196.57,38.909 
		198.89,40.5 210.22,27.216 197.189,74.489 200.377,74.489 213.406,27.216 	"/>
	<path fill="#FFFFFF" d="M24.717,64.094c-2.929-0.949-5.287-2.134-7.064-3.553c3.863-2.658,7.021-6.777,9.48-12.359h-9.395
		c0.678-0.799,1.356-1.651,2.029-2.562l-1.249-0.589c-2.959,3.95-6.418,7.295-10.375,10.027l0.933,0.994
		c0.581-0.394,1.461-1.052,2.645-1.973c0.702,2.427,1.825,4.581,3.372,6.462c-2.278,1.304-5.183,2.479-8.712,3.525l0.559,1.352
		c3.685-1.141,6.741-2.436,9.174-3.885c1.68,1.467,4.176,2.807,7.497,4.015L24.717,64.094z M16.394,49.719h8.401
		c-0.956,2.008-1.923,3.645-2.907,4.922c-1.449-1.229-3.613-2.512-6.496-3.855C15.669,50.517,16.002,50.161,16.394,49.719z
		 M13.126,52.959c0.394-0.346,0.715-0.66,0.963-0.938c2.706,1.219,4.93,2.544,6.672,3.973c-1.135,1.314-2.491,2.494-4.069,3.54
		C15.292,58.209,14.108,56.02,13.126,52.959z"/>
	<path fill="#FFFFFF" d="M5.955,53.175l-3.35,12.157h1.527l3.984-14.461l1.678-2.059c1.111-1.391,1.949-2.552,2.514-3.481
		l-1.298-0.562c-2.805,4.279-6.102,7.88-9.904,10.806l0.676,1.209C3.162,55.749,4.551,54.545,5.955,53.175z"/>
	<path fill="#FFFFFF" d="M30.169,42.64H19.291c-0.549-1.475-1.021-2.545-1.415-3.208l-1.699,0.734
		c0.549,0.891,0.941,1.716,1.177,2.473H5.119l-0.408,1.483h25.05L30.169,42.64z"/>
	<polygon fill="#FFFFFF" points="66.589,40.944 52.587,40.944 52.159,42.497 66.161,42.497 	"/>
	<path fill="#FFFFFF" d="M40.197,65.491h1.524l4.152-15.066c1.468-1.322,2.793-2.67,3.977-4.042l-1.06-0.848
		c-2.256,2.791-5.659,5.797-10.217,9.021l0.476,1.209c1.826-1.228,3.426-2.408,4.804-3.539L40.197,65.491z"/>
	<path fill="#FFFFFF" d="M65.546,49.952l0.43-1.555h-16.68l-0.428,1.555h10.375l-3.639,13.207c-0.078,0.27-0.219,0.439-0.43,0.512
		c-0.209,0.072-1.176,0.108-2.895,0.108c-0.919,0-1.794-0.019-2.616-0.058l0.185,1.583c0.656,0.038,1.536,0.058,2.632,0.058
		c1.271,0,2.132-0.041,2.577-0.125c0.445-0.078,0.885-0.306,1.315-0.676c0.438-0.369,0.741-0.873,0.916-1.517l3.607-13.093H65.546z"
		/>
	<path fill="#FFFFFF" d="M50.788,40.525l-1.001-0.95c-1.988,1.929-4.872,3.885-8.642,5.872l0.56,1.208
		C45.392,44.766,48.418,42.723,50.788,40.525z"/>
	<path fill="#FFFFFF" d="M84.509,58.584l-1.573,0.33c-0.037,2.148-0.321,4.298-0.855,6.447l1.575-0.289
		C84.181,62.858,84.465,60.694,84.509,58.584z"/>
	<path fill="#FFFFFF" d="M91.106,64.874c0.012-2.381-0.18-4.496-0.581-6.346l-1.558,0.53c0.427,2.522,0.61,4.644,0.547,6.36
		L91.106,64.874z"/>
	<path fill="#FFFFFF" d="M99.979,45.734h-1.437l-0.985,3.569h-3.931l0.984-3.569h-1.468l-0.984,3.569h-3.826l0.984-3.569h-1.514
		l-0.982,3.569h-3.797l0.985-3.569h-1.5l-0.982,3.569h-3.785l-0.416,1.51h3.784l-1.388,5.037H75.35l-0.406,1.467h25.612l0.406-1.467
		h-3.768l1.388-5.037h3.177l0.418-1.51h-3.18L99.979,45.734z M85.018,55.85H81.22l1.388-5.037h3.797L85.018,55.85z M90.358,55.85
		h-3.829l1.386-5.037h3.828L90.358,55.85z M95.752,55.85h-3.928l1.388-5.037h3.928L95.752,55.85z"/>
	<path fill="#FFFFFF" d="M98.499,64.684c-0.304-1.889-0.926-3.961-1.854-6.215l-1.607,0.705c0.951,2.092,1.587,4.164,1.913,6.215
		L98.499,64.684z"/>
	<path fill="#FFFFFF" d="M87.85,40.137l-1.352-0.562c-3.128,2.985-5.858,5.137-8.199,6.46l0.885,1.065
		c1.575-0.949,2.819-1.818,3.724-2.604h20.147l0.386-1.41H84.677C85.817,42.089,86.874,41.106,87.85,40.137z"/>
	<path fill="#FFFFFF" d="M79.845,59.117l-1.131-0.706c-1.859,2.303-3.79,4.309-5.788,6.015l0.95,0.937
		C75.858,63.605,77.846,61.523,79.845,59.117z"/>
	<path fill="#FFFFFF" d="M132.009,58.915c2.129-1.218,4.157-2.595,6.087-4.129l-0.904-0.994c-1.609,1.381-3.472,2.668-5.584,3.857
		c-0.296-1.219-0.442-2.455-0.442-3.711l-1.609,0.617c0.022,4.654,1.79,8.316,5.302,10.993l1.43-1.323
		C133.997,62.68,132.572,60.911,132.009,58.915z"/>
	<path fill="#FFFFFF" d="M121.529,63.893l0.292,1.496c2.275-0.574,4.504-1.27,6.675-2.086l0.333-1.625
		c-1.864,0.746-3.629,1.338-5.292,1.77l3.147-11.426h10.691l3.232-11.727h-12.261l-6.279,22.779
		C121.983,63.389,121.804,63.664,121.529,63.893z M129.495,41.821h9.079l-0.95,3.453h-9.082L129.495,41.821z M128.134,46.771h9.079
		l-1.033,3.741h-9.077L128.134,46.771z"/>
	<path fill="#FFFFFF" d="M121.833,55.534c0.586-2.129,0.362-4.44-0.666-6.936c1.852-2.887,3.189-5.138,4.021-6.75l0.411-1.498H118
		l-6.884,24.981h1.497l6.471-23.484h4.633c-1.794,3.099-3.221,5.47-4.286,7.109c1.184,2.139,1.48,4.264,0.899,6.375
		c-0.255,0.941-0.619,1.58-1.086,1.92c-0.47,0.342-1.245,0.512-2.332,0.512c-0.498,0-0.986-0.02-1.463-0.057l0.187,1.553
		c2.042,0.087,3.498-0.207,4.375-0.879C120.887,57.71,121.493,56.76,121.833,55.534z"/>
	<path fill="#FFFFFF" d="M179.206,41.334h-11.141c-0.136-0.876-0.258-1.535-0.362-1.961l-0.028-0.114l-3.189,0.577l0.031,0.13
		c0.188,0.791,0.248,1.18,0.256,1.368h-11.443l-0.717,2.613h25.872L179.206,41.334z"/>
	<path fill="#FFFFFF" d="M171.382,59.907c-0.698,1.885-1.077,2.452-1.277,2.598c-0.191,0.142-0.865,0.313-2.97,0.313
		c-1.113,0-1.513-0.094-1.651-0.171c-0.113-0.063-0.23-0.177-0.145-0.489l1.506-5.471h-2.851l-1.638,5.938
		c-0.217,0.778-0.166,1.428,0.152,1.93c0.32,0.506,0.873,0.764,1.643,0.764l4.221,0.043c1.604,0,2.769-0.307,3.449-0.912
		c0.671-0.595,1.381-1.824,2.107-3.659l0.049-0.124l-2.557-0.874L171.382,59.907z"/>
	<path fill="#FFFFFF" d="M160.429,56.848l0.043-0.162h-2.82l-0.026,0.086c-0.778,2.202-1.991,3.719-3.612,4.51
		c-1.631,0.801-3.834,1.41-6.541,1.809l-0.129,0.02l0.508,2.643l0.124-0.021c4.261-0.759,7.308-1.966,9.042-3.586
		C158.761,60.524,159.903,58.742,160.429,56.848z"/>
	<path fill="#FFFFFF" d="M173.499,51.76l1.771-6.44h-20.231l-1.777,6.44H173.499z M157.354,47.79h14.357l-0.408,1.473h-14.354
		L157.354,47.79z"/>
	<polygon fill="#FFFFFF" points="149.127,58.625 152.112,58.625 152.888,55.804 171.89,55.804 171.121,58.596 174.002,58.596 
		175.501,53.163 150.632,53.163 	"/>
	<path fill="#FFFFFF" d="M12.434,78.758c-0.01-0.059-0.036-0.105-0.078-0.147c-0.046-0.038-0.114-0.068-0.204-0.091
		c-0.09-0.021-0.197-0.038-0.324-0.047c-0.124-0.014-0.271-0.018-0.444-0.018c-0.163,0-0.311,0.004-0.442,0.018
		c-0.127,0.009-0.241,0.025-0.336,0.047c-0.095,0.022-0.177,0.053-0.246,0.091c-0.066,0.042-0.124,0.089-0.172,0.147L0.129,92.043
		c-0.076,0.109-0.119,0.193-0.127,0.26c-0.009,0.063,0.015,0.113,0.076,0.15c0.063,0.033,0.166,0.061,0.299,0.075
		c0.128,0.013,0.301,0.022,0.498,0.022c0.175,0,0.328-0.008,0.455-0.018c0.131-0.012,0.236-0.027,0.316-0.049
		c0.085-0.021,0.148-0.05,0.197-0.084c0.049-0.037,0.087-0.082,0.117-0.131l2.718-3.725h8.173l0.795,3.725
		c0.007,0.049,0.026,0.094,0.056,0.131c0.027,0.034,0.073,0.063,0.137,0.084c0.063,0.021,0.148,0.037,0.26,0.049
		c0.107,0.01,0.23,0.018,0.364,0.018c0.212,0,0.384-0.008,0.518-0.018c0.133-0.012,0.238-0.034,0.312-0.07
		c0.07-0.037,0.119-0.088,0.136-0.156c0.017-0.068,0.014-0.154-0.015-0.264L12.434,78.758z M5.484,87.446l5.511-7.512h0.015
		l1.597,7.512H5.484z"/>
	<path fill="#FFFFFF" d="M35.697,79.519c-0.202-0.14-0.518-0.303-0.941-0.483c-0.43-0.187-0.948-0.34-1.561-0.467
		c-0.618-0.126-1.281-0.189-1.988-0.189c-1.065,0-2.047,0.131-2.951,0.389c-0.899,0.261-1.716,0.613-2.443,1.064
		c-0.729,0.448-1.373,0.973-1.93,1.569C23.326,82,22.86,82.636,22.48,83.317c-0.377,0.682-0.661,1.382-0.853,2.105
		c-0.192,0.721-0.292,1.43-0.292,2.121c0,0.813,0.148,1.535,0.439,2.168c0.292,0.635,0.705,1.166,1.24,1.598
		c0.532,0.432,1.176,0.76,1.933,0.981c0.761,0.224,1.609,0.335,2.545,0.335c0.663,0,1.293-0.049,1.884-0.146
		c0.598-0.096,1.133-0.213,1.609-0.35c0.476-0.138,0.877-0.279,1.208-0.427c0.328-0.146,0.544-0.255,0.64-0.323
		c0.097-0.068,0.165-0.128,0.204-0.18c0.036-0.049,0.07-0.103,0.097-0.16c0.032-0.057,0.053-0.117,0.075-0.178
		c0.018-0.061,0.034-0.119,0.049-0.174c0.012-0.053,0.026-0.105,0.036-0.157c0.007-0.049,0.014-0.093,0.014-0.13
		c0-0.105-0.024-0.187-0.074-0.237c-0.047-0.048-0.117-0.075-0.217-0.075c-0.161,0-0.379,0.07-0.652,0.207
		c-0.272,0.136-0.62,0.287-1.035,0.453c-0.418,0.164-0.914,0.314-1.491,0.451c-0.578,0.138-1.251,0.206-2.027,0.206
		c-0.722,0-1.366-0.087-1.933-0.265c-0.564-0.176-1.041-0.434-1.43-0.771c-0.388-0.338-0.688-0.75-0.892-1.24
		c-0.204-0.488-0.309-1.044-0.309-1.662c0-0.549,0.073-1.121,0.217-1.721c0.143-0.6,0.357-1.193,0.648-1.781
		c0.287-0.588,0.645-1.143,1.075-1.673c0.432-0.53,0.934-0.995,1.505-1.397c0.574-0.401,1.21-0.723,1.923-0.961
		c0.708-0.236,1.492-0.355,2.343-0.355c0.78,0,1.425,0.068,1.938,0.209c0.516,0.143,0.931,0.295,1.252,0.459
		c0.32,0.166,0.576,0.318,0.763,0.459c0.185,0.139,0.345,0.209,0.481,0.209c0.107,0,0.204-0.042,0.292-0.127
		c0.092-0.085,0.17-0.209,0.226-0.367c0.059-0.158,0.088-0.306,0.088-0.443C36.001,79.811,35.899,79.659,35.697,79.519z"/>
	<path fill="#FFFFFF" d="M53.824,79.519c-0.204-0.14-0.516-0.303-0.943-0.483c-0.425-0.187-0.946-0.34-1.561-0.467
		c-0.612-0.126-1.274-0.189-1.986-0.189c-1.065,0-2.049,0.131-2.949,0.389c-0.902,0.261-1.718,0.613-2.448,1.064
		c-0.73,0.448-1.371,0.973-1.928,1.569c-0.554,0.598-1.024,1.234-1.402,1.915c-0.379,0.682-0.664,1.382-0.856,2.105
		c-0.192,0.721-0.287,1.43-0.287,2.121c0,0.813,0.146,1.535,0.438,2.168c0.292,0.635,0.706,1.166,1.235,1.598
		c0.532,0.432,1.176,0.76,1.938,0.981c0.758,0.224,1.608,0.335,2.547,0.335c0.662,0,1.289-0.049,1.884-0.146
		c0.596-0.096,1.13-0.213,1.604-0.35c0.476-0.138,0.88-0.279,1.208-0.427c0.333-0.146,0.544-0.255,0.644-0.323
		c0.093-0.068,0.161-0.128,0.199-0.18c0.037-0.049,0.073-0.103,0.1-0.16c0.029-0.057,0.053-0.117,0.073-0.178
		s0.036-0.119,0.049-0.174c0.019-0.053,0.026-0.105,0.037-0.157c0.009-0.049,0.019-0.093,0.019-0.13
		c0-0.105-0.029-0.187-0.078-0.237c-0.046-0.048-0.115-0.075-0.214-0.075c-0.161,0-0.382,0.07-0.657,0.207
		c-0.271,0.136-0.617,0.287-1.035,0.453c-0.413,0.164-0.909,0.314-1.49,0.451c-0.573,0.138-1.249,0.206-2.027,0.206
		c-0.717,0-1.361-0.087-1.928-0.265c-0.564-0.176-1.043-0.434-1.432-0.771c-0.389-0.338-0.683-0.75-0.892-1.24
		c-0.209-0.488-0.309-1.044-0.309-1.662c0-0.549,0.073-1.121,0.216-1.721c0.144-0.6,0.36-1.193,0.646-1.781
		c0.288-0.588,0.647-1.143,1.08-1.673c0.43-0.53,0.934-0.995,1.505-1.397c0.569-0.401,1.21-0.723,1.92-0.961
		c0.712-0.236,1.493-0.355,2.344-0.355c0.778,0,1.422,0.068,1.938,0.209c0.513,0.143,0.929,0.295,1.25,0.459
		c0.323,0.166,0.576,0.318,0.763,0.459c0.19,0.139,0.347,0.209,0.484,0.209c0.104,0,0.204-0.042,0.294-0.127
		s0.167-0.209,0.226-0.367c0.054-0.158,0.081-0.306,0.081-0.443C54.124,79.811,54.023,79.659,53.824,79.519z"/>
	<path fill="#FFFFFF" d="M70.553,78.52H61.98c-0.17,0-0.365,0.049-0.574,0.146c-0.212,0.098-0.353,0.274-0.421,0.533l-3.364,12.605
		c-0.039,0.129-0.043,0.238-0.015,0.324c0.027,0.086,0.071,0.156,0.134,0.209c0.065,0.055,0.141,0.094,0.226,0.115
		c0.087,0.021,0.17,0.031,0.255,0.031h8.722c0.085,0,0.168-0.014,0.238-0.043c0.071-0.029,0.132-0.068,0.18-0.119
		c0.049-0.051,0.087-0.105,0.114-0.167c0.029-0.06,0.053-0.122,0.073-0.188c0.02-0.063,0.032-0.127,0.036-0.189
		c0.003-0.061,0.008-0.111,0.008-0.155c0-0.108-0.029-0.188-0.088-0.237c-0.056-0.051-0.133-0.076-0.23-0.076h-7.77l1.498-5.567
		h6.59c0.085,0,0.163-0.017,0.229-0.052c0.068-0.031,0.124-0.067,0.167-0.112c0.042-0.042,0.081-0.093,0.112-0.149
		c0.037-0.06,0.057-0.121,0.073-0.189c0.015-0.068,0.026-0.131,0.036-0.188c0.01-0.059,0.015-0.107,0.015-0.141
		c0-0.102-0.032-0.178-0.085-0.228c-0.058-0.051-0.141-0.074-0.246-0.074h-6.59l1.31-4.911h7.613c0.083,0,0.163-0.016,0.233-0.051
		c0.073-0.029,0.134-0.073,0.182-0.122c0.046-0.051,0.085-0.108,0.115-0.173c0.029-0.065,0.054-0.129,0.068-0.189
		c0.021-0.06,0.034-0.121,0.039-0.178c0.007-0.059,0.007-0.104,0.007-0.141C70.872,78.627,70.765,78.52,70.553,78.52z"/>
	<path fill="#FFFFFF" d="M85.846,79.141c-0.085-0.061-0.241-0.141-0.474-0.238c-0.228-0.098-0.508-0.186-0.831-0.27
		c-0.328-0.082-0.695-0.152-1.104-0.209c-0.408-0.059-0.836-0.088-1.286-0.088c-0.931,0-1.764,0.109-2.496,0.326
		c-0.737,0.213-1.356,0.504-1.865,0.867c-0.508,0.365-0.896,0.779-1.164,1.252c-0.27,0.472-0.404,0.965-0.404,1.482
		c0,0.469,0.095,0.875,0.287,1.227c0.192,0.35,0.445,0.658,0.749,0.928c0.309,0.271,0.659,0.506,1.058,0.712
		c0.398,0.204,0.802,0.399,1.215,0.583c0.413,0.184,0.817,0.363,1.215,0.54s0.754,0.368,1.058,0.577
		c0.309,0.209,0.557,0.443,0.749,0.707c0.192,0.262,0.287,0.57,0.287,0.922c0,0.41-0.106,0.797-0.323,1.156
		c-0.211,0.358-0.525,0.676-0.929,0.947c-0.401,0.273-0.892,0.49-1.473,0.65c-0.579,0.156-1.235,0.234-1.964,0.234
		c-0.632,0-1.184-0.057-1.653-0.172c-0.472-0.115-0.88-0.24-1.226-0.378c-0.345-0.136-0.634-0.261-0.873-0.377
		c-0.233-0.114-0.427-0.171-0.581-0.171c-0.066,0-0.132,0.016-0.188,0.047s-0.106,0.076-0.15,0.129
		c-0.042,0.055-0.075,0.113-0.109,0.179c-0.021,0.063-0.054,0.13-0.08,0.2c-0.02,0.066-0.037,0.135-0.047,0.193
		c-0.009,0.061-0.014,0.111-0.014,0.146c0,0.158,0.061,0.281,0.18,0.371c0.119,0.092,0.316,0.195,0.596,0.313
		c0.279,0.119,0.619,0.234,1.016,0.346s0.841,0.205,1.337,0.281s1.019,0.115,1.575,0.115c1.036,0,1.974-0.115,2.805-0.342
		c0.834-0.229,1.549-0.533,2.137-0.918c0.593-0.385,1.047-0.835,1.361-1.35c0.316-0.513,0.477-1.057,0.477-1.633
		c0-0.461-0.097-0.865-0.292-1.216c-0.192-0.347-0.443-0.657-0.754-0.927c-0.312-0.27-0.671-0.508-1.072-0.713
		c-0.403-0.205-0.812-0.4-1.229-0.588c-0.418-0.188-0.827-0.369-1.223-0.55c-0.396-0.181-0.753-0.374-1.064-0.583
		s-0.564-0.443-0.756-0.701c-0.191-0.26-0.289-0.563-0.289-0.907c0-0.354,0.09-0.692,0.26-1.02c0.173-0.328,0.426-0.618,0.756-0.869
		s0.74-0.451,1.223-0.598c0.484-0.149,1.038-0.223,1.662-0.223c0.545,0,1.026,0.048,1.43,0.142c0.408,0.092,0.756,0.193,1.045,0.301
		c0.287,0.109,0.523,0.209,0.703,0.303c0.185,0.095,0.32,0.141,0.418,0.141c0.068,0,0.126-0.014,0.18-0.045
		c0.056-0.027,0.102-0.066,0.144-0.113c0.044-0.045,0.083-0.1,0.111-0.162c0.027-0.059,0.051-0.121,0.068-0.183
		c0.02-0.06,0.037-0.119,0.044-0.178c0.012-0.058,0.017-0.11,0.017-0.161c0-0.102-0.021-0.186-0.061-0.248
		C85.997,79.264,85.936,79.202,85.846,79.141z"/>
	<path fill="#FFFFFF" d="M101.917,79.141c-0.085-0.061-0.243-0.141-0.475-0.238c-0.226-0.098-0.508-0.186-0.833-0.27
		c-0.326-0.082-0.695-0.152-1.101-0.209c-0.408-0.059-0.836-0.088-1.286-0.088c-0.931,0-1.765,0.109-2.497,0.326
		c-0.737,0.213-1.356,0.504-1.865,0.867c-0.508,0.365-0.896,0.779-1.164,1.252c-0.27,0.472-0.401,0.965-0.401,1.482
		c0,0.469,0.093,0.875,0.285,1.227c0.191,0.35,0.439,0.658,0.748,0.928c0.307,0.271,0.659,0.506,1.055,0.712
		c0.401,0.204,0.805,0.399,1.218,0.583c0.411,0.184,0.819,0.363,1.215,0.54c0.396,0.177,0.749,0.368,1.058,0.577
		c0.309,0.209,0.559,0.443,0.749,0.707c0.192,0.262,0.287,0.57,0.287,0.922c0,0.41-0.107,0.797-0.321,1.156
		c-0.217,0.358-0.527,0.676-0.929,0.947c-0.403,0.273-0.895,0.49-1.476,0.65c-0.581,0.156-1.235,0.234-1.964,0.234
		c-0.632,0-1.184-0.057-1.653-0.172c-0.472-0.115-0.88-0.24-1.225-0.378c-0.348-0.136-0.635-0.261-0.871-0.377
		c-0.234-0.114-0.431-0.171-0.581-0.171c-0.068,0-0.13,0.016-0.19,0.047c-0.056,0.031-0.106,0.076-0.15,0.129
		c-0.042,0.055-0.08,0.113-0.109,0.179c-0.026,0.063-0.056,0.13-0.078,0.2c-0.024,0.066-0.042,0.135-0.049,0.193
		c-0.01,0.061-0.017,0.111-0.017,0.146c0,0.158,0.063,0.281,0.18,0.371c0.122,0.092,0.321,0.195,0.598,0.313
		c0.28,0.119,0.621,0.234,1.016,0.346c0.396,0.111,0.844,0.205,1.335,0.281c0.496,0.076,1.021,0.115,1.578,0.115
		c1.036,0,1.971-0.115,2.805-0.342c0.836-0.229,1.548-0.533,2.139-0.918c0.589-0.385,1.043-0.835,1.359-1.35
		c0.315-0.513,0.474-1.057,0.474-1.633c0-0.461-0.094-0.865-0.287-1.216c-0.192-0.347-0.445-0.657-0.756-0.927
		c-0.311-0.27-0.668-0.508-1.071-0.713c-0.404-0.205-0.812-0.4-1.23-0.588c-0.418-0.188-0.824-0.369-1.223-0.55
		c-0.401-0.181-0.754-0.374-1.064-0.583c-0.312-0.209-0.564-0.443-0.756-0.701c-0.192-0.26-0.29-0.563-0.29-0.907
		c0-0.354,0.088-0.692,0.261-1.02c0.175-0.328,0.425-0.618,0.756-0.869c0.328-0.251,0.736-0.451,1.22-0.598
		c0.486-0.149,1.041-0.223,1.663-0.223c0.549,0,1.026,0.048,1.435,0.142c0.406,0.092,0.753,0.193,1.042,0.301
		c0.287,0.109,0.523,0.209,0.703,0.303c0.18,0.095,0.323,0.141,0.421,0.141c0.065,0,0.124-0.014,0.177-0.045
		c0.054-0.027,0.103-0.066,0.144-0.113c0.046-0.045,0.083-0.1,0.109-0.162c0.029-0.059,0.054-0.121,0.07-0.183
		c0.022-0.06,0.035-0.119,0.044-0.178c0.008-0.058,0.015-0.11,0.015-0.161c0-0.102-0.02-0.186-0.059-0.248
		C102.067,79.264,102.007,79.202,101.917,79.141z"/>
	<path fill="#FFFFFF" d="M111.924,78.532c-0.065-0.021-0.147-0.04-0.255-0.055c-0.105-0.015-0.238-0.021-0.401-0.021
		c-0.155,0-0.289,0.007-0.403,0.021c-0.117,0.015-0.209,0.033-0.29,0.055c-0.076,0.021-0.139,0.051-0.185,0.086
		c-0.049,0.035-0.078,0.076-0.087,0.119l-3.597,13.533c-0.016,0.043-0.016,0.082,0,0.117c0.019,0.037,0.06,0.066,0.124,0.088
		c0.06,0.021,0.147,0.039,0.257,0.054c0.11,0.013,0.253,0.022,0.423,0.022c0.166,0,0.304-0.01,0.418-0.022
		c0.115-0.015,0.211-0.032,0.29-0.054c0.078-0.021,0.134-0.051,0.172-0.088c0.042-0.035,0.062-0.074,0.073-0.117l3.598-13.533
		c0.007-0.043,0.002-0.084-0.018-0.119C112.024,78.583,111.983,78.553,111.924,78.532z"/>
	<path fill="#FFFFFF" d="M128.936,79.233c-0.394-0.23-0.892-0.407-1.498-0.529c-0.605-0.121-1.374-0.184-2.302-0.184h-3.729
		c-0.219,0-0.439,0.049-0.661,0.146c-0.219,0.098-0.362,0.274-0.43,0.533l-3.355,12.605c-0.075,0.238-0.043,0.41,0.105,0.518
		c0.141,0.109,0.353,0.162,0.63,0.162h4.82c0.797,0,1.5-0.059,2.117-0.172c0.615-0.116,1.172-0.277,1.685-0.486
		c0.504-0.209,0.961-0.457,1.359-0.745c0.396-0.286,0.734-0.603,1.006-0.948c0.275-0.347,0.479-0.715,0.627-1.105
		c0.144-0.393,0.212-0.795,0.212-1.205c0-0.368-0.068-0.706-0.204-1.014c-0.144-0.311-0.336-0.581-0.583-0.81
		c-0.253-0.231-0.548-0.423-0.893-0.577c-0.345-0.156-0.719-0.263-1.123-0.318c0.527-0.172,1-0.392,1.415-0.652
		c0.42-0.264,0.772-0.564,1.06-0.902c0.29-0.336,0.508-0.707,0.664-1.105c0.153-0.4,0.229-0.822,0.229-1.269
		c0-0.411-0.093-0.778-0.28-1.106S129.327,79.463,128.936,79.233z M127.626,87.94c0,0.456-0.107,0.885-0.324,1.293
		c-0.216,0.404-0.525,0.76-0.928,1.066c-0.404,0.305-0.897,0.551-1.48,0.734c-0.586,0.182-1.298,0.275-2.13,0.275h-3.916
		l1.439-5.449h3.536c1.289,0,2.242,0.179,2.869,0.539C127.314,86.759,127.626,87.274,127.626,87.94z M127.913,82.524
		c-0.163,0.387-0.414,0.746-0.754,1.068c-0.34,0.326-0.778,0.59-1.31,0.799s-1.216,0.314-2.049,0.314h-3.18l1.32-5.008h2.922
		c0.664,0,1.191,0.041,1.592,0.123c0.396,0.083,0.724,0.197,0.979,0.345c0.253,0.149,0.435,0.328,0.552,0.537
		c0.112,0.206,0.173,0.441,0.173,0.699C128.158,81.761,128.078,82.135,127.913,82.524z"/>
	<path fill="#FFFFFF" d="M144.715,91.29h-7.135l3.335-12.553c0.012-0.043,0.008-0.084-0.012-0.119s-0.059-0.064-0.117-0.086
		c-0.053-0.021-0.141-0.04-0.25-0.055c-0.111-0.015-0.248-0.021-0.411-0.021s-0.301,0.007-0.413,0.021
		c-0.119,0.015-0.214,0.033-0.291,0.055c-0.078,0.021-0.137,0.051-0.181,0.086s-0.068,0.076-0.08,0.119l-3.481,13.068
		c-0.037,0.129-0.044,0.238-0.012,0.324c0.026,0.086,0.075,0.156,0.141,0.209c0.071,0.055,0.146,0.094,0.239,0.115
		c0.092,0.021,0.18,0.031,0.267,0.031h8.085c0.088,0,0.163-0.018,0.224-0.049c0.063-0.031,0.119-0.074,0.168-0.129
		c0.044-0.055,0.088-0.113,0.112-0.178c0.031-0.064,0.056-0.131,0.073-0.201c0.019-0.066,0.031-0.131,0.041-0.188
		c0.009-0.058,0.017-0.104,0.017-0.141c0-0.1-0.026-0.178-0.083-0.232C144.902,91.313,144.821,91.29,144.715,91.29z"/>
	<path fill="#FFFFFF" d="M163.909,78.52h-8.576c-0.173,0-0.365,0.049-0.576,0.146c-0.212,0.098-0.353,0.274-0.416,0.533
		l-3.369,12.605c-0.039,0.129-0.041,0.238-0.012,0.324c0.028,0.086,0.072,0.156,0.136,0.209c0.063,0.055,0.136,0.094,0.221,0.115
		c0.088,0.021,0.176,0.031,0.261,0.031h8.719c0.088,0,0.166-0.014,0.238-0.043c0.068-0.029,0.132-0.068,0.181-0.119
		s0.087-0.105,0.114-0.167c0.029-0.06,0.053-0.122,0.073-0.188c0.017-0.063,0.028-0.127,0.036-0.189
		c0.002-0.061,0.005-0.111,0.005-0.155c0-0.108-0.026-0.188-0.085-0.237c-0.057-0.051-0.134-0.076-0.231-0.076h-7.767l1.493-5.567
		h6.59c0.087,0,0.165-0.017,0.23-0.052c0.068-0.031,0.124-0.067,0.166-0.112c0.043-0.042,0.082-0.093,0.116-0.149
		c0.034-0.06,0.057-0.121,0.07-0.189c0.015-0.068,0.024-0.131,0.039-0.188c0.008-0.059,0.01-0.107,0.01-0.141
		c0-0.102-0.026-0.178-0.085-0.228c-0.056-0.051-0.139-0.074-0.245-0.074h-6.588l1.308-4.911h7.613c0.085,0,0.165-0.016,0.236-0.051
		c0.073-0.029,0.136-0.073,0.18-0.122c0.046-0.051,0.087-0.108,0.114-0.173c0.029-0.065,0.059-0.129,0.072-0.189
		c0.02-0.06,0.032-0.121,0.037-0.178c0.002-0.059,0.008-0.104,0.008-0.141C164.226,78.627,164.118,78.52,163.909,78.52z"/>
	<path fill="#FFFFFF" d="M186.966,90.526h-6.143l3.087-11.621c0.051-0.219,0.022-0.447-0.088-0.657
		c-0.077-0.136-0.229-0.319-0.524-0.432c-0.109-0.04-0.234-0.071-0.416-0.095c-0.27-0.034-0.722-0.037-1.028,0
		c-0.148,0.021-0.277,0.047-0.389,0.078c-0.185,0.051-0.341,0.129-0.458,0.229c-0.172,0.143-0.291,0.33-0.33,0.512l-3.479,13.047
		c-0.082,0.283-0.085,0.549-0.005,0.779c0.071,0.227,0.21,0.421,0.394,0.57c0.156,0.123,0.331,0.211,0.532,0.258
		c0.149,0.035,0.297,0.053,0.448,0.053h8.082c0.209,0,0.396-0.045,0.576-0.135c0.148-0.076,0.277-0.178,0.382-0.297
		s0.188-0.248,0.24-0.37c0.047-0.103,0.085-0.206,0.115-0.31c0.024-0.1,0.043-0.193,0.056-0.266c0.02-0.109,0.024-0.199,0.024-0.27
		c0-0.377-0.155-0.622-0.287-0.761C187.614,90.696,187.366,90.526,186.966,90.526z"/>
	<path fill="#FFFFFF" d="M220.091,78.988c-0.136-0.095-0.377-0.231-0.731-0.409c-0.348-0.174-0.766-0.338-1.245-0.48
		c-0.466-0.141-1.008-0.262-1.599-0.357c-0.599-0.095-1.249-0.144-1.942-0.144c-1.177,0-2.293,0.124-3.328,0.37
		c-1.033,0.248-1.998,0.592-2.861,1.026c-0.877,0.437-1.67,0.969-2.359,1.579c-0.688,0.609-1.279,1.281-1.756,1.998
		c-0.474,0.722-0.848,1.496-1.105,2.303c-0.258,0.811-0.389,1.647-0.389,2.484c0,0.928,0.187,1.781,0.559,2.535
		c0.376,0.756,0.928,1.41,1.641,1.94c0.697,0.517,1.559,0.915,2.564,1.184c0.978,0.261,2.109,0.394,3.367,0.394
		c0.77,0,1.52-0.057,2.217-0.167c0.688-0.106,1.308-0.235,1.848-0.378c0.549-0.145,0.994-0.283,1.356-0.427
		c0.5-0.196,0.673-0.292,0.828-0.411c0.101-0.085,0.192-0.18,0.29-0.297c0.126-0.154,0.219-0.34,0.299-0.59l1.404-5.246
		c0.13-0.449,0.044-0.877-0.24-1.205c-0.178-0.203-0.516-0.447-1.096-0.447h-5.711c-0.191,0-0.377,0.041-0.52,0.111
		c-0.148,0.064-0.277,0.156-0.385,0.262c-0.111,0.102-0.203,0.221-0.277,0.354c-0.051,0.093-0.092,0.19-0.131,0.296
		c-0.043,0.114-0.073,0.226-0.092,0.338c-0.015,0.11-0.02,0.204-0.02,0.277c0,0.317,0.124,0.602,0.356,0.8
		c0.202,0.176,0.462,0.266,0.747,0.266h3.758l-0.854,3.156c-0.496,0.167-1.03,0.297-1.587,0.389
		c-1.603,0.264-3.021,0.221-4.145-0.074c-0.605-0.16-1.123-0.393-1.539-0.691c-0.396-0.286-0.692-0.627-0.904-1.046
		c-0.206-0.415-0.312-0.907-0.312-1.46c0-0.576,0.088-1.151,0.261-1.712c0.175-0.565,0.428-1.11,0.763-1.62
		c0.334-0.51,0.737-0.993,1.214-1.428c0.469-0.435,1.009-0.817,1.611-1.135c0.601-0.319,1.267-0.571,1.981-0.754
		c1.373-0.352,3.119-0.344,4.215-0.088c0.539,0.126,0.999,0.268,1.359,0.42c0.364,0.152,0.66,0.292,0.882,0.416
		c0.603,0.346,1.099,0.393,1.48,0.158c0.126-0.072,0.238-0.173,0.325-0.278c0.078-0.091,0.142-0.194,0.215-0.341
		c0.039-0.088,0.075-0.172,0.102-0.255c0.029-0.091,0.054-0.181,0.07-0.28c0.02-0.105,0.027-0.189,0.027-0.258
		c0-0.227-0.051-0.428-0.144-0.599C220.466,79.296,220.319,79.145,220.091,78.988z"/>
	<path fill="#FFFFFF" d="M241.208,77.809c-0.092-0.032-0.224-0.064-0.403-0.088c-0.277-0.034-0.741-0.034-1.045,0
		c-0.159,0.021-0.287,0.049-0.392,0.08c-0.176,0.051-0.323,0.129-0.439,0.227c-0.176,0.143-0.29,0.33-0.334,0.514l-1.402,5.282
		h-7.715l1.305-4.919c0.043-0.189,0.029-0.385-0.047-0.58c-0.06-0.138-0.206-0.387-0.58-0.516c-0.09-0.032-0.222-0.064-0.403-0.088
		c-0.271-0.034-0.715-0.037-1.026,0c-0.153,0.021-0.281,0.047-0.394,0.078c-0.183,0.051-0.336,0.129-0.447,0.229
		c-0.183,0.143-0.297,0.33-0.335,0.514l-3.591,13.496c-0.078,0.234-0.062,0.486,0.051,0.697c0.075,0.148,0.233,0.348,0.549,0.459
		c0.112,0.04,0.249,0.068,0.414,0.091c0.263,0.032,0.739,0.036,1.028,0c0.16-0.02,0.299-0.046,0.4-0.077
		c0.202-0.057,0.37-0.148,0.486-0.261c0.146-0.138,0.253-0.313,0.287-0.481l1.58-5.941h7.716l-1.462,5.514
		c-0.082,0.236-0.063,0.488,0.047,0.697c0.08,0.148,0.236,0.348,0.555,0.459c0.109,0.04,0.245,0.068,0.413,0.091
		c0.136,0.017,0.304,0.026,0.508,0.026s0.377-0.01,0.521-0.026c0.165-0.02,0.304-0.048,0.408-0.08
		c0.188-0.056,0.345-0.146,0.465-0.258c0.111-0.105,0.203-0.231,0.262-0.37l3.646-13.672c0.041-0.189,0.029-0.385-0.049-0.58
		C241.726,78.187,241.577,77.938,241.208,77.809z"/>
	<path fill="#FFFFFF" d="M261.294,79.668c0.045-0.092,0.076-0.184,0.105-0.271c0.039-0.115,0.058-0.227,0.063-0.336
		c0.008-0.084,0.013-0.152,0.013-0.205c0-0.27-0.08-0.516-0.233-0.716c-0.114-0.144-0.372-0.382-0.844-0.382h-12.861
		c-0.189,0-0.364,0.038-0.531,0.113c-0.149,0.069-0.286,0.168-0.397,0.285c-0.086,0.091-0.165,0.193-0.229,0.302
		c-0.068,0.11-0.116,0.231-0.148,0.342c-0.032,0.097-0.056,0.192-0.068,0.28c-0.017,0.107-0.026,0.201-0.026,0.283
		c0,0.264,0.076,0.496,0.204,0.678c0.107,0.154,0.368,0.418,0.875,0.418h4.546l-3.085,11.578c-0.08,0.236-0.061,0.488,0.056,0.713
		c0.08,0.143,0.236,0.338,0.545,0.443c0.114,0.04,0.248,0.068,0.413,0.091c0.137,0.017,0.304,0.026,0.504,0.026
		c0.211,0,0.384-0.01,0.524-0.026c0.168-0.02,0.304-0.048,0.411-0.083c0.194-0.055,0.348-0.148,0.459-0.255
		c0.114-0.103,0.199-0.222,0.261-0.354l3.257-12.133h4.964c0.197,0,0.387-0.043,0.537-0.113c0.156-0.068,0.292-0.158,0.409-0.271
		C261.13,79.962,261.224,79.829,261.294,79.668z"/>
	<path fill="#FFFFFF" d="M275.199,78.95c-0.093-0.161-0.233-0.307-0.403-0.43c-0.142-0.096-0.334-0.195-0.623-0.318
		c-0.262-0.112-0.57-0.212-0.943-0.307c-0.352-0.089-0.748-0.164-1.181-0.227c-0.44-0.062-0.904-0.094-1.396-0.094
		c-1.002,0-1.912,0.119-2.71,0.355c-0.813,0.238-1.52,0.567-2.095,0.98c-0.594,0.425-1.061,0.928-1.383,1.492
		c-0.334,0.586-0.502,1.213-0.502,1.861c0,0.598,0.131,1.133,0.379,1.592c0.24,0.426,0.545,0.809,0.916,1.133
		c0.349,0.311,0.757,0.584,1.209,0.818c0.412,0.212,0.832,0.414,1.256,0.602l1.216,0.541c0.357,0.156,0.669,0.328,0.938,0.511
		c0.236,0.157,0.424,0.334,0.564,0.524c0.095,0.135,0.138,0.283,0.138,0.475c0,0.272-0.067,0.521-0.216,0.764
		c-0.156,0.264-0.392,0.502-0.7,0.709c-0.331,0.227-0.751,0.408-1.247,0.545c-0.953,0.258-2.354,0.275-3.238,0.059
		c-0.438-0.107-0.816-0.223-1.123-0.346c-0.325-0.129-0.598-0.244-0.816-0.352c-0.593-0.293-1.048-0.341-1.482-0.103
		c-0.139,0.077-0.261,0.183-0.372,0.319c-0.078,0.102-0.146,0.213-0.212,0.352c-0.036,0.082-0.068,0.164-0.092,0.242
		c-0.044,0.115-0.068,0.226-0.088,0.326c-0.018,0.111-0.024,0.205-0.024,0.27c0,0.396,0.173,0.746,0.483,0.98
		c0.178,0.131,0.416,0.26,0.756,0.404c0.31,0.133,0.682,0.26,1.107,0.379c0.427,0.119,0.905,0.221,1.429,0.301
		c0.527,0.08,1.097,0.121,1.692,0.121c1.096,0,2.111-0.121,3.004-0.367c0.912-0.246,1.704-0.588,2.354-1.014
		c0.688-0.447,1.225-0.981,1.597-1.586c0.392-0.635,0.588-1.318,0.588-2.035c0-0.59-0.128-1.123-0.384-1.58
		c-0.233-0.428-0.545-0.813-0.924-1.138c-0.357-0.31-0.766-0.585-1.225-0.817c-0.413-0.21-0.837-0.412-1.265-0.605l-1.22-0.547
		c-0.365-0.165-0.686-0.342-0.958-0.521c-0.235-0.158-0.428-0.335-0.564-0.521c-0.095-0.129-0.14-0.273-0.14-0.454
		c0-0.228,0.057-0.444,0.172-0.665c0.121-0.229,0.297-0.433,0.539-0.615c0.26-0.197,0.594-0.359,0.99-0.479
		c0.772-0.234,1.949-0.238,2.697-0.064c0.367,0.082,0.688,0.176,0.949,0.271c0.25,0.096,0.459,0.181,0.627,0.268
		c0.563,0.287,0.984,0.268,1.295,0.09c0.137-0.07,0.253-0.164,0.338-0.261c0.1-0.103,0.183-0.224,0.25-0.363
		c0.042-0.097,0.081-0.19,0.105-0.271c0.031-0.096,0.053-0.192,0.067-0.285c0.021-0.104,0.024-0.201,0.024-0.291
		C275.354,79.336,275.304,79.122,275.199,78.95z"/>
</g>
</svg>
